<svg width="14" height="14" viewBox="0 0 14 14" fill="none" xmlns="http://www.w3.org/2000/svg">
<path d="M6.99967 0.335938C3.33301 0.335938 0.333008 3.33594 0.333008 7.0026C0.333008 10.6693 3.33301 13.6693 6.99967 13.6693C10.6663 13.6693 13.6663 10.6693 13.6663 7.0026C13.6663 3.33594 10.6663 0.335938 6.99967 0.335938ZM6.99967 12.3359C4.05967 12.3359 1.66634 9.9426 1.66634 7.0026C1.66634 4.0626 4.05967 1.66927 6.99967 1.66927C9.93967 1.66927 12.333 4.0626 12.333 7.0026C12.333 9.9426 9.93967 12.3359 6.99967 12.3359ZM7.33301 3.66927H6.33301V7.66927L9.79967 9.8026L10.333 8.93594L7.33301 7.13594V3.66927Z" fill="#02080D"/>
</svg>
