<svg width="12" height="12" viewBox="0 0 12 12" fill="none" xmlns="http://www.w3.org/2000/svg">
<path d="M5.33333 4H6.66667V5.33333H5.33333V4ZM8 4H9.33333V5.33333H8V4ZM11.3333 8.33333C10.5 8.33333 9.7 8.2 8.95333 7.95333C8.88667 7.93333 8.81333 7.92 8.74667 7.92C8.57333 7.92 8.40667 7.98667 8.27333 8.11333L6.80667 9.58C4.92 8.62 3.37333 7.08 2.41333 5.19333L3.88 3.72C4.06667 3.54 4.12 3.28 4.04667 3.04667C3.8 2.3 3.66667 1.5 3.66667 0.666667C3.66667 0.3 3.36667 0 3 0H0.666667C0.3 0 0 0.3 0 0.666667C0 6.92667 5.07333 12 11.3333 12C11.7 12 12 11.7 12 11.3333V9C12 8.63333 11.7 8.33333 11.3333 8.33333ZM1.35333 1.33333H2.35333C2.4 1.92 2.5 2.5 2.66 3.06L1.86 3.86667C1.58667 3.06 1.41333 2.21333 1.35333 1.33333ZM10.6667 10.6467C9.78667 10.5867 8.93333 10.4133 8.13333 10.14L8.93333 9.34C9.5 9.5 10.08 9.6 10.6667 9.64V10.6467ZM10.6667 4H12V5.33333H10.6667V4Z" fill="#050F19"/>
</svg>
