<svg width="15" height="13" viewBox="0 0 15 13" fill="none" xmlns="http://www.w3.org/2000/svg">
<path d="M1.125 13C0.825 13 0.5625 12.8781 0.3375 12.6344C0.1125 12.3906 0 12.1062 0 11.7812V1.21875C0 0.89375 0.1125 0.609375 0.3375 0.365625C0.5625 0.121875 0.825 0 1.125 0H13.875C14.175 0 14.4375 0.121875 14.6625 0.365625C14.8875 0.609375 15 0.89375 15 1.21875V11.7812C15 12.1062 14.8875 12.3906 14.6625 12.6344C14.4375 12.8781 14.175 13 13.875 13H1.125ZM7.5 6.74375C7.5625 6.74375 7.61562 6.73359 7.65937 6.71328C7.70312 6.69297 7.75 6.66927 7.8 6.64219L13.6875 2.47813C13.75 2.4375 13.7969 2.38333 13.8281 2.31562C13.8594 2.24792 13.875 2.17344 13.875 2.09219C13.875 1.91615 13.8031 1.77734 13.6594 1.67578C13.5156 1.57422 13.3687 1.5776 13.2188 1.68594L7.5 5.64687L1.8 1.68594C1.65 1.5776 1.5 1.57083 1.35 1.66563C1.2 1.76042 1.125 1.89583 1.125 2.07188C1.125 2.15313 1.14375 2.23099 1.18125 2.30547C1.21875 2.37995 1.2625 2.4375 1.3125 2.47813L7.2 6.64219C7.25 6.66927 7.29688 6.69297 7.34063 6.71328C7.38438 6.73359 7.4375 6.74375 7.5 6.74375Z" fill="#050F19"/>
</svg>
