<svg width="19" height="20" viewBox="0 0 19 20" fill="none" xmlns="http://www.w3.org/2000/svg">
<path fill-rule="evenodd" clip-rule="evenodd" d="M18.8124 10C18.8124 15.5228 14.6385 20 9.4897 20C4.34091 20 0.166992 15.5228 0.166992 10C0.166992 4.47715 4.34091 0 9.4897 0C14.6385 0 18.8124 4.47715 18.8124 10ZM9.82377 7.38245C8.917 7.78701 7.10473 8.62434 4.38697 9.89445C3.94565 10.0827 3.71447 10.2669 3.69342 10.4469C3.65785 10.7513 4.01315 10.8711 4.49696 11.0343C4.56277 11.0565 4.63096 11.0795 4.70087 11.1039C5.17687 11.2698 5.81718 11.464 6.15005 11.4717C6.45199 11.4787 6.78899 11.3452 7.16106 11.0711C9.70034 9.23251 11.0111 8.30319 11.0934 8.28315C11.1515 8.26902 11.2319 8.25125 11.2865 8.30322C11.341 8.35519 11.3356 8.45361 11.3298 8.48002C11.2946 8.64096 9.89998 10.0318 9.17825 10.7515C8.95325 10.9759 8.79364 11.135 8.76102 11.1714C8.68793 11.2528 8.61345 11.3298 8.54186 11.4039C8.09964 11.8611 7.76802 12.204 8.56022 12.764C8.94091 13.0331 9.24554 13.2556 9.54945 13.4776C9.88136 13.7201 10.2124 13.9619 10.6407 14.2631C10.7499 14.3398 10.8541 14.4195 10.9556 14.4971C11.3419 14.7925 11.6889 15.0579 12.1176 15.0155C12.3667 14.991 12.624 14.7397 12.7547 13.9903C13.0636 12.2193 13.6706 8.38206 13.8109 6.80082C13.8232 6.66229 13.8078 6.48499 13.7953 6.40716C13.7829 6.32932 13.757 6.21843 13.6627 6.13634C13.551 6.03912 13.3785 6.01862 13.3014 6.02008C12.9508 6.0267 12.4128 6.22736 9.82377 7.38245Z" fill="#050F19"/>
</svg>
