<svg width="18" height="18" viewBox="0 0 18 18" fill="none" xmlns="http://www.w3.org/2000/svg">
<path d="M17.7252 1.32353V16.6765C17.7252 17.0275 17.5952 17.3641 17.3638 17.6123C17.1324 17.8606 16.8186 18 16.4913 18H2.17822C1.85098 18 1.53713 17.8606 1.30573 17.6123C1.07433 17.3641 0.944336 17.0275 0.944336 16.6765V1.32353C0.944336 0.972508 1.07433 0.635863 1.30573 0.387653C1.53713 0.139443 1.85098 0 2.17822 0L16.4913 0C16.8186 0 17.1324 0.139443 17.3638 0.387653C17.5952 0.635863 17.7252 0.972508 17.7252 1.32353ZM5.87989 6.88235H3.41211V15.3529H5.87989V6.88235ZM6.10199 3.97059C6.10329 3.77036 6.06781 3.57182 5.99757 3.3863C5.92734 3.20078 5.82373 3.03191 5.69265 2.88935C5.56157 2.74678 5.4056 2.6333 5.23364 2.5554C5.06167 2.47749 4.87709 2.43668 4.69042 2.43529H4.646C4.26639 2.43529 3.90233 2.59705 3.63391 2.88497C3.36549 3.17289 3.21469 3.5634 3.21469 3.97059C3.21469 4.37777 3.36549 4.76828 3.63391 5.05621C3.90233 5.34413 4.26639 5.50588 4.646 5.50588C4.83268 5.51081 5.01844 5.47623 5.19265 5.40413C5.36687 5.33202 5.52614 5.2238 5.66135 5.08565C5.79656 4.94749 5.90507 4.78212 5.98068 4.59897C6.05628 4.41582 6.09751 4.21848 6.10199 4.01824V3.97059ZM15.2574 10.2071C15.2574 7.66059 13.7472 6.67059 12.2468 6.67059C11.7555 6.6442 11.2664 6.75644 10.8282 6.9961C10.3899 7.23577 10.018 7.59448 9.74936 8.03647H9.68026V6.88235H7.36055V15.3529H9.82833V10.8476C9.79266 10.3862 9.92816 9.92835 10.2054 9.57347C10.4826 9.2186 10.8792 8.9954 11.309 8.95235H11.4028C12.1875 8.95235 12.7699 9.48177 12.7699 10.8159V15.3529H15.2377L15.2574 10.2071Z" fill="#050F19"/>
</svg>
