<svg width="15" height="15" viewBox="0 0 15 15" fill="none" xmlns="http://www.w3.org/2000/svg">
<path d="M0 4.6875H3.35438V15H0V4.6875ZM12.4913 4.80844C12.4556 4.79719 12.4219 4.785 12.3844 4.77469C12.3394 4.7645 12.294 4.75574 12.2484 4.74844C12.0504 4.70794 11.8487 4.68753 11.6466 4.6875C9.69094 4.6875 8.45063 6.10969 8.04187 6.65906V4.6875H4.6875V15H8.04187V9.375C8.04187 9.375 10.5769 5.84438 11.6466 8.4375V15H15V8.04094C14.9986 7.30044 14.7515 6.58134 14.2975 5.99635C13.8435 5.41136 13.2082 4.99356 12.4913 4.80844Z" fill="#050F19"/>
<path d="M1.64062 3.28125C2.54672 3.28125 3.28125 2.54672 3.28125 1.64062C3.28125 0.734533 2.54672 0 1.64062 0C0.734533 0 0 0.734533 0 1.64062C0 2.54672 0.734533 3.28125 1.64062 3.28125Z" fill="#050F19"/>
</svg>
