<svg width="14" height="10" viewBox="0 0 14 10" fill="none" xmlns="http://www.w3.org/2000/svg">
<path d="M0 0.375H3.13075V10H0V0.375ZM11.6585 0.487875C11.6252 0.477375 11.5938 0.466 11.5588 0.456375C11.5167 0.446864 11.4744 0.438693 11.4319 0.431875C11.247 0.394079 11.0588 0.375024 10.8701 0.375C9.04488 0.375 7.88725 1.70238 7.50575 2.21513V0.375H4.375V10H7.50575V4.75C7.50575 4.75 9.87175 1.45475 10.8701 3.875V10H14V3.50487C13.9987 2.81375 13.7681 2.14258 13.3444 1.59659C12.9206 1.0506 12.3277 0.660657 11.6585 0.487875Z" fill="#232323"/>
</svg>
