<svg width="12" height="14" viewBox="0 0 12 14" fill="none" xmlns="http://www.w3.org/2000/svg">
<path d="M8 6.66406V2.66406L6 0.664062L4 2.66406V3.9974H0V13.3307H12V6.66406H8ZM2.66667 11.9974H1.33333V10.6641H2.66667V11.9974ZM2.66667 9.33073H1.33333V7.9974H2.66667V9.33073ZM2.66667 6.66406H1.33333V5.33073H2.66667V6.66406ZM6.66667 11.9974H5.33333V10.6641H6.66667V11.9974ZM6.66667 9.33073H5.33333V7.9974H6.66667V9.33073ZM6.66667 6.66406H5.33333V5.33073H6.66667V6.66406ZM6.66667 3.9974H5.33333V2.66406H6.66667V3.9974ZM10.6667 11.9974H9.33333V10.6641H10.6667V11.9974ZM10.6667 9.33073H9.33333V7.9974H10.6667V9.33073Z" fill="black"/>
</svg>
