<svg width="177" height="64" viewBox="0 0 177 64" fill="none" xmlns="http://www.w3.org/2000/svg">
<path d="M27.2888 40.717L22.2148 37.1V11.2031H27.2888V40.717ZM34.0837 46.2506L27.892 41.1088H43.6526V46.2506H34.0837Z" fill="#3399FF"/>
<path d="M54.9323 16.3449L49.9209 11.2031H71.1691V16.3449H54.9323ZM54.9323 31.1382L49.9209 26.1863H66.7871V31.1382H54.9323ZM56.1146 46.2486L49.9229 41.1068H71.1711V46.2486H56.1146Z" fill="#3399FF"/>
<path d="M109.794 40.4727C110.742 40.0082 111.549 39.3619 112.217 38.5359C112.885 37.7099 113.22 36.7486 113.22 35.6479V11.2031H118.294V35.7731C118.294 37.1283 118.062 38.3441 117.596 39.4245C117.13 40.503 116.506 41.4663 115.725 42.3125C114.943 43.1587 114.035 43.8797 112.998 44.4714C111.961 45.0652 110.893 45.5095 109.794 45.8043V40.4727Z" fill="#3399FF"/>
<path d="M142.14 35.8984H137.193V40.7232H142.14V35.8984Z" fill="#CCCCCC"/>
<path d="M139.73 11.2031L123.747 46.2506H129.138L139.73 21.8058L150.194 46.2506H155.65L139.73 11.2031Z" fill="#3399FF"/>
<path d="M102.45 22.253C101.74 20.1365 100.673 18.2523 99.2463 16.6023C97.822 14.9523 96.0304 13.6174 93.8738 12.6015C91.7171 11.5857 89.2214 11.0788 86.3889 11.0788H77.4191L77.3405 11V26.1528H82.6727V16.3498H86.3909C88.3781 16.3498 90.1212 16.6992 91.6243 17.398C93.1253 18.0967 94.3842 19.0278 95.397 20.191C96.4117 21.3563 97.1723 22.6771 97.6807 24.1595C98.1892 25.6418 98.4413 27.1444 98.4413 28.6671C98.4413 30.2343 98.1871 31.7672 97.6807 33.2697C97.1744 34.7723 96.4117 36.1052 95.397 37.2705C94.3822 38.4358 93.1232 39.3648 91.6243 40.0636C90.1232 40.7623 88.3781 41.1117 86.3909 41.1117H77.3364L82.4972 46.2535H86.3909C89.2234 46.2535 91.7191 45.7567 93.8758 44.7611C96.0325 43.7674 97.822 42.4446 99.2483 40.7926C100.673 39.1426 101.742 37.2584 102.452 35.1419C103.162 33.0254 103.517 30.8665 103.517 28.6651C103.515 26.5082 103.16 24.3715 102.45 22.253Z" fill="#3399FF"/>
<path d="M35.71 49.9688H36.5593L37.6084 55.8194L38.6575 49.9688H39.5069L38.0825 57.0392H37.1303L35.71 49.9688Z" fill="#330033"/>
<path d="M41.1352 56.7613C40.9214 56.527 40.8145 56.1716 40.8145 55.699C40.8145 55.1315 40.9436 54.7074 41.2038 54.4267C41.4641 54.1459 41.8514 54.0066 42.3699 54.0066H43.1467L43.2153 54.6731H42.374C42.1077 54.6731 41.9099 54.7579 41.7768 54.9275C41.6436 55.0972 41.5771 55.3557 41.5771 55.699C41.5771 55.9514 41.6356 56.1393 41.7546 56.2604C41.8736 56.3816 42.0512 56.4422 42.2913 56.4422C42.5636 56.4422 42.7674 56.3695 42.9005 56.2241C43.0357 56.0787 43.1023 55.8585 43.1023 55.5637L43.2032 56.006C43.1991 56.2524 43.1568 56.4584 43.074 56.624C42.9913 56.7896 42.8683 56.9128 42.7069 56.9935C42.5455 57.0743 42.3417 57.1147 42.0956 57.1147C41.6699 57.1127 41.3491 56.9956 41.1352 56.7613ZM43.1023 53.3442C43.1023 53.1079 43.0377 52.9241 42.9086 52.7949C42.7795 52.6656 42.5959 52.601 42.3598 52.601C42.152 52.601 41.9906 52.6656 41.8736 52.7949C41.7566 52.9241 41.7001 53.1099 41.7042 53.3502L40.9173 53.3462C40.9173 52.8898 41.0444 52.5343 41.3007 52.2839C41.5569 52.0335 41.918 51.9062 42.3841 51.9062C42.6988 51.9062 42.9671 51.9628 43.1911 52.0759C43.415 52.189 43.5845 52.3526 43.7015 52.5666C43.8185 52.7807 43.877 53.0392 43.877 53.3442V57.04H43.1043V53.3442H43.1023Z" fill="#330033"/>
<path d="M46.5518 55.7083C46.5518 55.8901 46.5922 56.0295 46.6708 56.1284C46.7495 56.2274 46.8625 56.2759 47.0078 56.2759H47.3084V57.0392H46.919C46.5437 57.0392 46.2532 56.9221 46.0474 56.6899C45.8417 56.4556 45.7388 56.1264 45.7388 55.7023V49.9688H46.5498V55.7083H46.5518Z" fill="#330033"/>
<path d="M48.8779 50.1406H49.695V50.9525H48.8779V50.1406ZM48.8779 51.9946H49.695V57.0435H48.8779V51.9946Z" fill="#330033"/>
<path d="M52.0536 56.9504C51.8761 56.8312 51.7389 56.6575 51.6461 56.4293C51.5533 56.2011 51.5049 55.9285 51.5049 55.6155V53.4707C51.5049 53.1435 51.5513 52.8628 51.6461 52.6265C51.7409 52.3902 51.8761 52.2125 52.0516 52.0893C52.2271 51.9661 52.441 51.9035 52.6912 51.9035C52.9312 51.9035 53.1491 51.9802 53.3469 52.1378C53.5446 52.2933 53.7039 52.5114 53.827 52.7941L53.7241 53.499C53.7241 53.3172 53.6959 53.1617 53.6414 53.0344C53.5869 52.9072 53.5062 52.8083 53.4013 52.7396C53.2964 52.6709 53.1693 52.6366 53.02 52.6366C52.7961 52.6366 52.6226 52.7133 52.4995 52.8648C52.3764 53.0163 52.3139 53.2303 52.3139 53.501V55.5912C52.3139 55.8437 52.3744 56.0396 52.4995 56.1789C52.6226 56.3183 52.7961 56.3889 53.02 56.3889C53.1693 56.3889 53.2964 56.3566 53.4013 56.29C53.5062 56.2233 53.5869 56.1284 53.6414 56.0052C53.6959 55.882 53.7241 55.7306 53.7241 55.5528L53.7927 56.2435C53.6979 56.5222 53.5567 56.7383 53.365 56.8918C53.1733 57.0453 52.9494 57.122 52.6891 57.122C52.443 57.1281 52.2312 57.0675 52.0536 56.9504ZM53.7241 49.9688H54.5351V57.0392H53.7241V49.9688Z" fill="#330033"/>
<path d="M58.1201 49.9688H61.5498V50.7321H58.1201V49.9688ZM59.4274 50.5484H60.2445V57.0413H59.4274V50.5484Z" fill="#330033"/>
<path d="M62.8794 51.9931H63.6904V57.042H62.8794V51.9931ZM65.141 52.6939C65.1228 52.6939 65.1047 52.6939 65.0845 52.6939C64.6568 52.6939 64.3219 52.7969 64.0798 53.0009C63.8377 53.2048 63.7066 53.4896 63.6904 53.8511L63.5895 52.8736C63.7651 52.5687 63.991 52.3304 64.2694 52.1607C64.5479 51.9911 64.8545 51.9062 65.1874 51.9062V52.6939C65.1753 52.6939 65.1592 52.6939 65.141 52.6939Z" fill="#330033"/>
<path d="M67.5962 55.6799C67.5962 55.8899 67.6547 56.0535 67.7717 56.1666C67.8887 56.2797 68.0582 56.3363 68.2821 56.3363C68.5081 56.3363 68.6776 56.2797 68.7905 56.1686C68.9035 56.0576 68.958 55.8879 68.958 55.6597L69.0266 56.2959C68.9318 56.5726 68.7986 56.7765 68.6231 56.9118C68.4476 57.0472 68.2297 57.1138 67.9674 57.1138C67.5861 57.1138 67.2936 56.9906 67.0898 56.7462C66.888 56.5019 66.7852 56.1505 66.7852 55.694V51.9922H67.5962V55.6799ZM68.958 51.9942H69.769V57.0431H68.958V51.9942Z" fill="#330033"/>
<path d="M72.0851 56.941C71.8592 56.8259 71.6857 56.6542 71.5687 56.4281C71.4496 56.2019 71.3911 55.9252 71.3911 55.6021V55.5819H72.1678V55.6021C72.1678 55.8646 72.2304 56.0645 72.3575 56.1998C72.4846 56.3352 72.6702 56.4038 72.9163 56.4038C73.1584 56.4038 73.344 56.3372 73.4711 56.2059C73.5982 56.0746 73.6608 55.8868 73.6608 55.6384C73.6608 55.495 73.6305 55.3779 73.57 55.285C73.5095 55.1921 73.4308 55.1194 73.3299 55.0669C73.229 55.0144 73.0959 54.9558 72.9264 54.8952C72.9103 54.8912 72.8921 54.8871 72.872 54.8831C72.8518 54.879 72.8336 54.873 72.8134 54.8669C72.8013 54.8609 72.7872 54.8548 72.7751 54.8528C72.763 54.8508 72.7489 54.8467 72.7368 54.8427C72.4705 54.7518 72.2526 54.6589 72.0791 54.564C71.9056 54.4691 71.7583 54.3257 71.6372 54.1338C71.5162 53.942 71.4557 53.6895 71.4557 53.3745C71.4557 53.0594 71.5101 52.7928 71.6211 52.5747C71.7321 52.3566 71.8915 52.189 72.1053 52.0759C72.3171 51.9628 72.5754 51.9062 72.88 51.9062C73.1887 51.9062 73.4469 51.9588 73.6568 52.0658C73.8666 52.1728 74.028 52.3324 74.1369 52.5444C74.2479 52.7565 74.3023 53.015 74.3023 53.3199V53.3341H73.5256V53.3139C73.5256 53.0837 73.4711 52.91 73.3622 52.7908C73.2533 52.6717 73.0919 52.6131 72.878 52.6131C72.6682 52.6131 72.5088 52.6757 72.3999 52.8029C72.2909 52.9302 72.2364 53.1119 72.2364 53.3523C72.2364 53.5118 72.2707 53.639 72.3393 53.736C72.4079 53.8329 72.4987 53.9097 72.6117 53.9662C72.7247 54.0228 72.8699 54.0793 73.0495 54.1338C73.0555 54.1338 73.0656 54.1358 73.0757 54.1379C73.0878 54.1419 73.0959 54.1419 73.1019 54.1419C73.106 54.1459 73.11 54.148 73.1181 54.15C73.1262 54.152 73.1322 54.152 73.1342 54.152C73.4126 54.2368 73.6386 54.3237 73.8121 54.4125C73.9856 54.5014 74.1329 54.6428 74.2559 54.8387C74.379 55.0325 74.4416 55.2991 74.4416 55.6364C74.4416 55.9535 74.383 56.2221 74.266 56.4422C74.149 56.6603 73.9775 56.8279 73.7496 56.941C73.5216 57.0541 73.2432 57.1107 72.9163 57.1107C72.5895 57.1107 72.3111 57.0561 72.0851 56.941Z" fill="#330033"/>
<path d="M75.626 51.9937H77.8028V52.7571H75.626V51.9937ZM76.431 56.7275C76.2413 56.5013 76.1465 56.1681 76.1465 55.7279V50.5234H76.9575V55.7319C76.9575 55.9137 76.9979 56.053 77.0765 56.152C77.1552 56.2509 77.2743 56.2994 77.4296 56.2994H77.8028V57.0628H77.3267C76.9192 57.0648 76.6186 56.9537 76.431 56.7275Z" fill="#330033"/>
</svg>
