<svg width="32" height="28" viewBox="0 0 32 28" fill="none" xmlns="http://www.w3.org/2000/svg">
<path d="M27.4903 2.25161C23.5303 -0.448394 18.6403 0.811606 16.0003 3.90161C13.3603 0.811606 8.47032 -0.463394 4.51032 2.25161C2.41032 3.69161 1.09032 6.12161 1.00032 8.68661C0.79032 14.5066 5.95032 19.1716 13.8253 26.3266L13.9753 26.4616C15.1153 27.4966 16.8703 27.4966 18.0103 26.4466L18.1753 26.2966C26.0503 19.1566 31.1953 14.4916 31.0003 8.67161C30.9103 6.12161 29.5903 3.69161 27.4903 2.25161ZM16.1503 24.0916L16.0003 24.2416L15.8503 24.0916C8.71032 17.6266 4.00032 13.3516 4.00032 9.01661C4.00032 6.01661 6.25032 3.76661 9.25032 3.76661C11.5603 3.76661 13.8103 5.25161 14.6053 7.30661H17.4103C18.1903 5.25161 20.4403 3.76661 22.7503 3.76661C25.7503 3.76661 28.0003 6.01661 28.0003 9.01661C28.0003 13.3516 23.2903 17.6266 16.1503 24.0916Z" fill="black"/>
</svg>
