<svg width="17" height="20" viewBox="0 0 17 20" fill="none" xmlns="http://www.w3.org/2000/svg">
<path d="M8.84276 9.94004C9.33188 9.94004 9.74931 9.77354 10.0951 9.44055C10.4408 9.10755 10.6137 8.70552 10.6137 8.23445C10.6137 7.76339 10.4408 7.36136 10.0951 7.02836C9.74931 6.69537 9.33188 6.52887 8.84276 6.52887C8.35365 6.52887 7.93621 6.69537 7.59046 7.02836C7.24471 7.36136 7.07183 7.76339 7.07183 8.23445C7.07183 8.70552 7.24471 9.10755 7.59046 9.44055C7.93621 9.77354 8.35365 9.94004 8.84276 9.94004ZM8.84276 18.005C11.0859 16.0395 12.743 14.2568 13.814 12.6568C14.885 11.0568 15.4205 9.64765 15.4205 8.42938C15.4205 6.51263 14.7838 4.94511 13.5104 3.72684C12.2371 2.50857 10.6812 1.89943 8.84276 1.89943C7.00437 1.89943 5.44848 2.50857 4.17509 3.72684C2.90171 4.94511 2.26501 6.51263 2.26501 8.42938C2.26501 9.64765 2.81316 11.0568 3.90945 12.6568C5.00574 14.2568 6.65018 16.0395 8.84276 18.005ZM8.86806 19.6375C8.75 19.6375 8.64037 19.6213 8.53918 19.5888C8.43798 19.5563 8.34522 19.5076 8.26089 19.4426C5.74785 17.3147 3.86729 15.3411 2.6192 13.5218C1.37111 11.7025 0.74707 10.005 0.74707 8.42938C0.74707 5.99283 1.56086 4.05171 3.18843 2.60603C4.816 1.16034 6.70078 0.4375 8.84276 0.4375C10.9847 0.4375 12.8695 1.16034 14.4971 2.60603C16.1247 4.05171 16.9385 5.99283 16.9385 8.42938C16.9385 10.005 16.3144 11.7025 15.0663 13.5218C13.8182 15.3411 11.9377 17.3147 9.42464 19.4426C9.34031 19.5076 9.25177 19.5563 9.159 19.5888C9.06624 19.6213 8.96926 19.6375 8.86806 19.6375Z" fill="#050F19"/>
</svg>
