<svg width="16" height="11" viewBox="0 0 16 11" fill="none" xmlns="http://www.w3.org/2000/svg">
<path d="M8.59375 6.53125C8.02083 6.53125 7.53385 6.33073 7.13281 5.92969C6.73177 5.52865 6.53125 5.04167 6.53125 4.46875C6.53125 3.89583 6.73177 3.40885 7.13281 3.00781C7.53385 2.60677 8.02083 2.40625 8.59375 2.40625C9.16667 2.40625 9.65365 2.60677 10.0547 3.00781C10.4557 3.40885 10.6562 3.89583 10.6562 4.46875C10.6562 5.04167 10.4557 5.52865 10.0547 5.92969C9.65365 6.33073 9.16667 6.53125 8.59375 6.53125ZM2.0625 8.9375V0H15.125V8.9375H2.0625ZM4.8125 7.90625H12.375C12.375 7.425 12.5411 7.01823 12.8734 6.68594C13.2057 6.35365 13.6125 6.1875 14.0938 6.1875V2.75C13.6125 2.75 13.2057 2.58385 12.8734 2.25156C12.5411 1.91927 12.375 1.5125 12.375 1.03125H4.8125C4.8125 1.5125 4.64635 1.91927 4.31406 2.25156C3.98177 2.58385 3.575 2.75 3.09375 2.75V6.1875C3.575 6.1875 3.98177 6.35365 4.31406 6.68594C4.64635 7.01823 4.8125 7.425 4.8125 7.90625ZM0 11V2.0625H1.03125V9.96875H13.0625V11H0ZM3.09375 7.90625V1.03125V7.90625Z" fill="#66737F"/>
</svg>
