<svg width="96" height="92" viewBox="0 0 96 92" fill="none" xmlns="http://www.w3.org/2000/svg">
<path d="M65.4561 38.4003V31.1203C65.4561 27.6081 62.5824 24.7344 59.0701 24.7344H14.3684C10.8242 24.7344 7.98242 27.6081 7.98242 31.1203V75.8221C7.98242 79.3344 10.8242 82.2081 14.3684 82.2081H59.0701C62.5824 82.2081 65.4561 79.3344 65.4561 75.8221V68.5421C67.34 67.4245 68.6491 65.413 68.6491 63.0502V43.8923C68.6491 41.5295 67.34 39.5179 65.4561 38.4003ZM62.2631 43.8923V63.0502H39.9122V43.8923H62.2631ZM14.3684 75.8221V31.1203H59.0701V37.5063H39.9122C36.4 37.5063 33.5263 40.38 33.5263 43.8923V63.0502C33.5263 66.5624 36.4 69.4361 39.9122 69.4361H59.0701V75.8221H14.3684Z" fill="#050F19"/>
<path d="M49.4912 58.2607C52.1363 58.2607 54.2807 56.1164 54.2807 53.4712C54.2807 50.8261 52.1363 48.6817 49.4912 48.6817C46.846 48.6817 44.7017 50.8261 44.7017 53.4712C44.7017 56.1164 46.846 58.2607 49.4912 58.2607Z" fill="#050F19"/>
<path d="M69.0538 4.49219C56.658 4.49219 46.5977 14.5525 46.5977 26.9483C46.5977 39.3441 56.658 49.4045 69.0538 49.4045C81.4496 49.4045 91.5099 39.3441 91.5099 26.9483C91.5099 14.5525 81.4496 4.49219 69.0538 4.49219ZM71.2994 38.1764H66.8082V33.6852H71.2994V38.1764ZM71.2994 29.1939H66.8082V15.7203H71.2994V29.1939Z" fill="#CB381F"/>
</svg>
