<svg width="40" height="40" viewBox="0 0 40 40" fill="none" xmlns="http://www.w3.org/2000/svg">
<path d="M19.9999 3.33333C10.7999 3.33333 3.33325 10.8 3.33325 20C3.33325 29.2 10.7999 36.6667 19.9999 36.6667C29.1999 36.6667 36.6666 29.2 36.6666 20C36.6666 10.8 29.1999 3.33333 19.9999 3.33333ZM19.9999 33.3333C12.6333 33.3333 6.66659 27.3667 6.66659 20C6.66659 16.9167 7.71659 14.0833 9.48325 11.8333L28.1666 30.5167C25.8385 32.347 22.9614 33.3393 19.9999 33.3333ZM30.5166 28.1667L11.8333 9.48333C14.1614 7.65294 17.0384 6.66064 19.9999 6.66666C27.3666 6.66666 33.3333 12.6333 33.3333 20C33.3333 23.0833 32.2833 25.9167 30.5166 28.1667Z" fill="#F24E1E"/>
</svg>
