<svg width="11" height="10" viewBox="0 0 11 10" fill="none" xmlns="http://www.w3.org/2000/svg">
<path d="M9.57377 5.66927H6.24044V9.0026C6.24044 9.36927 5.94044 9.66927 5.57377 9.66927C5.2071 9.66927 4.9071 9.36927 4.9071 9.0026V5.66927H1.57377C1.2071 5.66927 0.907104 5.36927 0.907104 5.0026C0.907104 4.63594 1.2071 4.33594 1.57377 4.33594H4.9071V1.0026C4.9071 0.635938 5.2071 0.335938 5.57377 0.335938C5.94044 0.335938 6.24044 0.635938 6.24044 1.0026V4.33594H9.57377C9.94044 4.33594 10.2404 4.63594 10.2404 5.0026C10.2404 5.36927 9.94044 5.66927 9.57377 5.66927Z" fill="#2163A6"/>
</svg>
