<svg width="14" height="12" viewBox="0 0 14 12" fill="none" xmlns="http://www.w3.org/2000/svg">
<path d="M6.65967 8.66406C7.24634 8.66406 7.79301 8.49073 8.25301 8.1974L9.87967 9.82406L10.8263 8.87739L9.19967 7.2574C9.49301 6.79073 9.66634 6.25073 9.66634 5.66406C9.66634 4.00406 8.32634 2.66406 6.66634 2.66406C5.00634 2.66406 3.66634 4.00406 3.66634 5.66406C3.66634 7.32406 5.00634 8.66406 6.65967 8.66406ZM6.66634 3.9974C7.58634 3.9974 8.33301 4.74406 8.33301 5.66406C8.33301 6.58406 7.58634 7.33073 6.66634 7.33073C5.74634 7.33073 4.99967 6.58406 4.99967 5.66406C4.99967 4.74406 5.74634 3.9974 6.66634 3.9974ZM12.333 0.664062H1.66634C0.933008 0.664062 0.333008 1.26406 0.333008 1.9974V9.9974C0.333008 10.7307 0.933008 11.3307 1.66634 11.3307H12.333C13.0663 11.3307 13.6663 10.7307 13.6663 9.9974V1.9974C13.6663 1.26406 13.0663 0.664062 12.333 0.664062ZM12.333 9.9974H1.66634V1.9974H12.333V9.9974Z" fill="#050F19"/>
</svg>
