<svg width="62" height="76" viewBox="0 0 62 76" fill="none" xmlns="http://www.w3.org/2000/svg">
<path d="M0.333496 75.9086V52.7729C0.333496 51.4713 0.637607 50.2348 1.24583 49.0634C1.8515 47.892 2.69739 46.9483 3.7835 46.2324L8.00016 43.4015C8.44738 48.8682 9.15016 53.5213 10.1085 57.361C11.0668 61.2007 12.5682 65.4634 14.6127 70.1491L0.333496 75.9086ZM20.3627 68.0991C18.1266 63.8039 16.4654 59.2483 15.3793 54.4324C14.2932 49.6166 13.7502 44.638 13.7502 39.4967C13.7502 31.3618 15.3321 23.6981 18.4958 16.5055C21.6571 9.31552 25.8252 3.86577 31.0002 0.15625C36.1752 3.86577 40.3433 9.31552 43.5045 16.5055C46.6683 23.6981 48.2502 31.3618 48.2502 39.4967C48.2502 44.5729 47.7071 49.502 46.621 54.2841C45.5349 59.0687 43.8738 63.6737 41.6377 68.0991H20.3627ZM31.0002 40.7658C33.1085 40.7658 34.914 40.0004 36.4167 38.4698C37.9168 36.9417 38.6668 35.1039 38.6668 32.9562C38.6668 30.8086 37.9168 28.9695 36.4167 27.4388C34.914 25.9108 33.1085 25.1467 31.0002 25.1467C28.8918 25.1467 27.0876 25.9108 25.5875 27.4388C24.0848 28.9695 23.3335 30.8086 23.3335 32.9562C23.3335 35.1039 24.0848 36.9417 25.5875 38.4698C27.0876 40.0004 28.8918 40.7658 31.0002 40.7658ZM61.6668 75.9086L47.3877 70.1491C49.4321 65.4634 50.9335 61.2007 51.8918 57.361C52.8502 53.5213 53.5529 48.8682 54.0002 43.4015L58.2168 46.2324C59.3029 46.9483 60.1501 47.892 60.7583 49.0634C61.364 50.2348 61.6668 51.4713 61.6668 52.7729V75.9086Z" fill="white"/>
</svg>
