<svg width="18" height="18" viewBox="0 0 18 18" fill="none" xmlns="http://www.w3.org/2000/svg">
<path d="M12.7549 11.2578H11.9649L11.6849 10.9878C12.6649 9.84781 13.2549 8.36781 13.2549 6.75781C13.2549 3.16781 10.3449 0.257812 6.75488 0.257812C3.16488 0.257812 0.254883 3.16781 0.254883 6.75781C0.254883 10.3478 3.16488 13.2578 6.75488 13.2578C8.36488 13.2578 9.84488 12.6678 10.9849 11.6878L11.2549 11.9678V12.7578L16.2549 17.7478L17.7449 16.2578L12.7549 11.2578ZM6.75488 11.2578C4.26488 11.2578 2.25488 9.24781 2.25488 6.75781C2.25488 4.26781 4.26488 2.25781 6.75488 2.25781C9.24488 2.25781 11.2549 4.26781 11.2549 6.75781C11.2549 9.24781 9.24488 11.2578 6.75488 11.2578Z" fill="black"/>
</svg>
