<svg width="18" height="18" viewBox="0 0 18 18" fill="none" xmlns="http://www.w3.org/2000/svg">
<path d="M16.6484 6.29781L11.8084 5.87781L9.91836 1.42781C9.57836 0.617813 8.41836 0.617813 8.07836 1.42781L6.18836 5.88781L1.35836 6.29781C0.478364 6.36781 0.118364 7.46781 0.788364 8.04781L4.45836 11.2278L3.35836 15.9478C3.15836 16.8078 4.08836 17.4878 4.84836 17.0278L8.99836 14.5278L13.1484 17.0378C13.9084 17.4978 14.8384 16.8178 14.6384 15.9578L13.5384 11.2278L17.2084 8.04781C17.8784 7.46781 17.5284 6.36781 16.6484 6.29781ZM8.99836 12.6578L5.23836 14.9278L6.23836 10.6478L2.91836 7.76781L7.29836 7.38781L8.99836 3.35781L10.7084 7.39781L15.0884 7.77781L11.7684 10.6578L12.7684 14.9378L8.99836 12.6578Z" fill="#050F19"/>
</svg>
