<svg width="14" height="12" viewBox="0 0 14 12" fill="none" xmlns="http://www.w3.org/2000/svg">
<path d="M14 1.80213C13.4907 2.02425 12.9521 2.17186 12.4007 2.24044C12.9818 1.89574 13.4162 1.34991 13.6217 0.706351C13.0777 1.02902 12.4824 1.25625 11.8617 1.3782C11.4812 0.971858 10.9872 0.689359 10.444 0.567407C9.90077 0.445454 9.33345 0.489686 8.81571 0.694356C8.29796 0.899025 7.85374 1.25467 7.54075 1.71509C7.22776 2.1755 7.06047 2.71941 7.06062 3.27614C7.06062 3.49614 7.07924 3.70768 7.12493 3.90906C6.02076 3.85493 4.94045 3.56836 3.95463 3.06808C2.9688 2.56781 2.09967 1.86509 1.40405 1.00589C1.04766 1.6167 0.937483 2.34038 1.09595 3.02957C1.25441 3.71876 1.6696 4.32164 2.25698 4.71545C1.81761 4.70367 1.38753 4.58643 1.00297 4.37361V4.40407C1.0037 5.04497 1.22522 5.66606 1.63024 6.16277C2.03526 6.65949 2.59903 7.0015 3.22667 7.13124C2.98923 7.19382 2.74452 7.22455 2.49898 7.22262C2.32263 7.22576 2.14646 7.20987 1.97351 7.17524C2.15285 7.72611 2.49855 8.20784 2.96301 8.5541C3.42747 8.90036 3.98785 9.09413 4.56699 9.10871C3.58455 9.87706 2.37288 10.2939 1.12566 10.2925C0.898044 10.2925 0.679735 10.2823 0.461426 10.2544C1.73056 11.0723 3.20948 11.5049 4.7193 11.5C9.82672 11.5 12.619 7.26916 12.619 3.60191C12.619 3.47921 12.6148 3.36075 12.6089 3.24314C13.1563 2.85135 13.6277 2.36303 14 1.80213Z" fill="#232323"/>
</svg>
