<svg width="48" height="48" viewBox="0 0 48 48" fill="none" xmlns="http://www.w3.org/2000/svg">
<path d="M24.0003 0.664062C11.1203 0.664062 0.666992 11.1174 0.666992 23.9974C0.666992 36.8774 11.1203 47.3307 24.0003 47.3307C36.8803 47.3307 47.3337 36.8774 47.3337 23.9974C47.3337 11.1174 36.8803 0.664062 24.0003 0.664062ZM12.497 38.6507C13.5003 36.5507 19.6137 34.4974 24.0003 34.4974C28.387 34.4974 34.5237 36.5507 35.5037 38.6507C32.3303 41.1707 28.3403 42.6641 24.0003 42.6641C19.6603 42.6641 15.6703 41.1707 12.497 38.6507ZM38.8403 35.2674C35.5037 31.2074 27.407 29.8307 24.0003 29.8307C20.5937 29.8307 12.497 31.2074 9.16033 35.2674C6.78033 32.1407 5.33366 28.2441 5.33366 23.9974C5.33366 13.7074 13.7103 5.33073 24.0003 5.33073C34.2903 5.33073 42.667 13.7074 42.667 23.9974C42.667 28.2441 41.2203 32.1407 38.8403 35.2674ZM24.0003 9.9974C19.4737 9.9974 15.8337 13.6374 15.8337 18.1641C15.8337 22.6907 19.4737 26.3307 24.0003 26.3307C28.527 26.3307 32.167 22.6907 32.167 18.1641C32.167 13.6374 28.527 9.9974 24.0003 9.9974ZM24.0003 21.6641C22.0637 21.6641 20.5003 20.1007 20.5003 18.1641C20.5003 16.2274 22.0637 14.6641 24.0003 14.6641C25.937 14.6641 27.5003 16.2274 27.5003 18.1641C27.5003 20.1007 25.937 21.6641 24.0003 21.6641Z" fill="#02080D"/>
</svg>
