<svg width="78" height="70" viewBox="0 0 78 70" fill="none" xmlns="http://www.w3.org/2000/svg">
<path d="M8.88048 69.0144H69.1205C75.2805 69.0144 79.1205 62.3344 76.0405 57.0144L45.9205 4.97438C42.8405 -0.345625 35.1605 -0.345625 32.0805 4.97438L1.96048 57.0144C-1.11951 62.3344 2.72048 69.0144 8.88048 69.0144ZM39.0005 41.0144C36.8005 41.0144 35.0005 39.2144 35.0005 37.0144V29.0144C35.0005 26.8144 36.8005 25.0144 39.0005 25.0144C41.2005 25.0144 43.0005 26.8144 43.0005 29.0144V37.0144C43.0005 39.2144 41.2005 41.0144 39.0005 41.0144ZM43.0005 57.0144H35.0005V49.0144H43.0005V57.0144Z" fill="#FFCD29"/>
</svg>
