<svg width="17" height="16" viewBox="0 0 17 16" fill="none" xmlns="http://www.w3.org/2000/svg">
<path d="M11.2096 11.697L8.62646 14.2801C7.73963 15.167 6.6775 15.6104 5.44006 15.6104C4.20262 15.6104 3.14049 15.167 2.25366 14.2801C1.36683 13.3933 0.923416 12.3312 0.923416 11.0938C0.923416 9.85631 1.36683 8.79418 2.25366 7.90735L4.83681 5.3242L5.88863 6.37602L3.30548 8.95917C2.70739 9.55727 2.40834 10.2688 2.40834 11.0938C2.40834 11.9187 2.70739 12.6302 3.30548 13.2283C3.89326 13.8161 4.60221 14.1126 5.43233 14.1177C6.26244 14.1229 6.97654 13.8264 7.57464 13.2283L10.1578 10.6452L11.2096 11.697ZM6.55375 10.9391L5.59474 9.98006L10.5136 5.06125L11.4726 6.02026L6.55375 10.9391ZM12.2305 10.6761L11.1787 9.62429L13.7618 7.04114C14.3599 6.44305 14.659 5.73152 14.659 4.90657C14.659 4.08161 14.3599 3.37008 13.7618 2.77199C13.174 2.1842 12.4651 1.88774 11.635 1.88258C10.8049 1.87742 10.0908 2.17389 9.49267 2.77199L6.90952 5.35514L5.8577 4.30332L8.44084 1.72017C9.32767 0.833337 10.3898 0.389922 11.6272 0.389922C12.8647 0.389922 13.9268 0.833337 14.8136 1.72017C15.7005 2.607 16.1439 3.66913 16.1439 4.90657C16.1439 6.144 15.7005 7.20614 14.8136 8.09297L12.2305 10.6761Z" fill="black"/>
</svg>
