<svg width="18" height="18" viewBox="0 0 18 18" fill="none" xmlns="http://www.w3.org/2000/svg">
<path d="M8.83578 0.289062C4.23024 0.289062 0.482152 4.16139 0.480528 8.92035C0.479445 10.4422 0.864864 11.9275 1.59564 13.2357L0.410156 17.7084L4.83977 16.5082C6.07192 17.1996 7.44198 17.5602 8.83253 17.5592H8.83578C13.4413 17.5592 17.1894 13.6863 17.191 8.92732C17.1921 6.62216 16.3238 4.45229 14.7459 2.82126C13.1685 1.18964 11.0709 0.289643 8.83578 0.289062ZM8.83578 16.1012H8.83307C7.58696 16.1012 6.36466 15.7551 5.29826 15.1013L5.04384 14.9457L2.41628 15.6576L3.11783 13.0098L2.95273 12.7387C2.25925 11.6042 1.89009 10.277 1.89066 8.92035C1.89229 4.96442 5.00812 1.74706 8.83849 1.74706C10.693 1.74764 12.4366 2.49493 13.7482 3.85074C15.0599 5.20655 15.7814 7.00945 15.7804 8.92674C15.7787 12.8827 12.6634 16.1012 8.83524 16.1012H8.83578ZM12.645 10.7273C12.4361 10.6199 11.4097 10.0979 11.2181 10.0253C11.027 9.9539 10.8879 9.91674 10.7488 10.1327C10.6102 10.3487 10.2096 10.8347 10.0884 10.9782C9.96605 11.1222 9.84426 11.1396 9.63531 11.0322C9.42636 10.9242 8.7535 10.6965 7.95668 9.96145C7.33579 9.3901 6.91681 8.68403 6.79501 8.46745C6.67321 8.25203 6.78202 8.13532 6.88649 8.0279C6.98014 7.9321 7.09544 7.77648 7.19937 7.65048C7.30331 7.52448 7.33795 7.43448 7.40832 7.29048C7.47761 7.14706 7.44297 7.02048 7.39046 6.91306C7.33795 6.80448 6.92114 5.74306 6.74629 5.31164C6.5774 4.89126 6.40526 4.94758 6.27697 4.94061C6.15517 4.9348 6.01659 4.93306 5.87639 4.93306C5.73836 4.93306 5.51154 4.98706 5.31992 5.20306C5.12883 5.41906 4.58914 5.94048 4.58914 7.0019C4.58914 8.0639 5.33724 9.08932 5.44171 9.23332C5.54619 9.37674 6.9141 11.5559 9.00846 12.4907C9.50647 12.712 9.89514 12.8449 10.1988 12.9448C10.699 13.1091 11.1542 13.0853 11.5137 13.0302C11.9143 12.968 12.749 12.5087 12.9222 12.0053C13.0965 11.5019 13.0965 11.0699 13.0445 10.9799C12.9936 10.8899 12.854 10.8359 12.645 10.7273Z" fill="#050F19"/>
</svg>
